<svg xmlns="http://www.w3.org/2000/svg" viewBox="0 0 48 48" role="img" aria-label="ServiceOS">
  <rect width="48" height="48" rx="12" fill="#1769ff"/>
  <path fill="#fff" d="M24 8.5 38 14v10.8c0 7.8-5 12.4-14 15.2-9-2.8-14-7.4-14-15.2V14l14-5.5Z"/>
  <path fill="#1769ff" d="M29.9 18.1c-1.6-1-3.5-1.5-5.8-1.5-3.8 0-6.3 1.9-6.3 4.8 0 3.1 2.5 4 6 4.8 2.2.5 3.1.9 3.1 1.9 0 1.1-1.1 1.7-2.9 1.7-2 0-3.9-.7-5.5-1.9l-1.8 2.7c1.9 1.5 4.4 2.4 7.2 2.4 4.2 0 6.7-1.9 6.7-5.1 0-3.2-2.6-4.2-6.2-5-2.1-.5-2.9-.8-2.9-1.7 0-.9 1-1.5 2.6-1.5 1.5 0 3 .4 4.3 1.2l1.5-2.8Z"/>
</svg>
